<svg id="Layer_1" data-name="Layer 1" xmlns="http://www.w3.org/2000/svg" viewBox="0 0 600 600"><defs><style>.cls-1{fill:#fafafa;}</style></defs><title>operations</title><circle class="cls-1" cx="300" cy="300" r="290"/><path d="M120,424.27q0-18.63,11.53-30.44t27-11.8Q185,382,185,406.77q0,11-7.37,22.44t-22.88,15.22Q167.65,455,187.31,455h1.51a47.59,47.59,0,0,0,28.93-9.32q12.67-9.33,21.75-28.74a210.13,210.13,0,0,0,13.07-34.61q4-15.19,10.46-39.73,9.69-37.78,18.6-70.67,16.26-66.54,16.26-85.06,0-23.07-10.21-35.92T260.5,138.13q-25.67,0-51.52,24.78t-40.2,72q-3,9.45-4.73,11.34t-9.26,1.89q-11.73,0-11.72-7.75T151.2,214a264.53,264.53,0,0,1,22.12-39.9q14-21.18,38-37.06t50.86-15.88q54.84,0,74.5,52.57,9.45-17.77,28.74-35.18t47.27-17.39a99.45,99.45,0,0,1,45.19,11.16Q480,143.43,480,169.9q0,20-12.48,30.43t-25.34,10.41q-14,0-20.6-7.75T415,186.15a61.88,61.88,0,0,1,.75-8.87q.77-5.13,8.51-15.13T446,149.09q-12.48-11-34-11-46.57,0-69.66,82.51-17.85,75.23-26.2,106.23Q301.33,390,301.32,405.24q0,27.36,11,38.57A35.91,35.91,0,0,0,339,455q26.46,0,52-24.85t40.27-72.29q3.06-9.48,5-11.19t9.21-1.72q11.88,0,11.51,7.57,0,6.79-7.77,25.16a279.48,279.48,0,0,1-21.63,40.08q-13.84,21.74-37.93,38T337.44,472q-20.81,0-42.17-11.66t-31.57-41q-30.25,52.34-75.63,52.7-28,0-48-13.16T120,424.27Z"/></svg>